<?xml version="1.0" standalone="no"?>
<!DOCTYPE svg PUBLIC "-//W3C//DTD SVG 20010904//EN"
 "http://www.w3.org/TR/2001/REC-SVG-20010904/DTD/svg10.dtd">
<svg version="1.0" xmlns="http://www.w3.org/2000/svg"
 width="700.000000pt" height="700.000000pt" viewBox="0 0 700.000000 700.000000"
 preserveAspectRatio="xMidYMid meet">
<metadata>
Created by potrace 1.14, written by Peter Selinger 2001-2017
</metadata>
<g transform="translate(0.000000,700.000000) scale(0.100000,-0.100000)"
fill="#000000" stroke="none">
<path d="M974 6098 c-37 -9 -72 -45 -82 -84 -4 -16 -8 -1269 -7 -2784 l1
-2756 22 -32 c13 -18 33 -37 45 -44 34 -19 1397 -19 1452 -1 42 15 72 46 79
85 3 13 5 547 5 1188 l1 1165 1010 0 1010 0 1 -40 c0 -22 1 -553 2 -1181 l2
-1141 27 -35 c15 -20 40 -40 55 -45 45 -15 1423 -10 1450 5 12 7 32 27 45 44
l23 33 0 2765 c0 3033 5 2798 -58 2844 -28 21 -38 21 -725 23 -791 2 -765 4
-801 -70 -20 -41 -20 -58 -21 -922 0 -484 0 -934 0 -1000 l0 -120 -1010 0
-1010 0 0 997 c0 549 0 1000 0 1003 2 18 -47 85 -69 96 -20 10 -173 13 -722
14 -382 0 -709 -3 -725 -7z"/>
</g>
</svg>
